# xmcd
#
# Track frame offsets: 
#        150
#        18723
#        36254
#        56196
#        77925
#        99817
#        117789
#
# Disc length: 1803 seconds
#
# Revision: 0
# Processed by: cddbd v1.5.2PL0 Copyright (c) Steve Scherf et al.
# Submitted via: ExactAudioCopyFreeDBPlugin 1.0
#
DISCID=55070907
DTITLE=Eileen Rose - At Our Tables Live
DYEAR=2008
DGENRE=Americana
TTITLE0=Blue Mood Words
TTITLE1=Jeannie Steps Out
TTITLE2=Doesn't Mean A Thing
TTITLE3=Failure to Thrive
TTITLE4=I'm The Only One
TTITLE5=Bird of Youth
TTITLE6=$20 Shoes
EXTD=
EXTT0=
EXTT1=
EXTT2=
EXTT3=
EXTT4=
EXTT5=
EXTT6=
PLAYORDER=
